<?xml version="1.0" encoding="UTF-8"?>
<svg id="Capa_2" data-name="Capa 2" xmlns="http://www.w3.org/2000/svg" viewBox="0 0 162.07 127.43">
  <defs>
    <style>
      .cls-1 {
        fill: #2dd99c;
        stroke-width: 0px;
      }
    </style>
  </defs>
  <g id="opc1">
    <g>
      <path class="cls-1" d="M143.15,14.23c-1.82,0-3.36,1.57-3.33,3.39.03,1.79,1.53,3.29,3.3,3.29,1.92,0,3.33-1.4,3.34-3.32,0-1.93-1.41-3.36-3.31-3.36Z"/>
      <path class="cls-1" d="M160.12,24.53c-1.9,1.09-3.86,2.12-5.64,3.39-1.68,1.19-2.61,2.93-2.42,5.09.13,1.52.27,3.04.5,4.54,1.04,6.84,1.84,13.68.62,20.59-1.72,9.71-5.5,18.43-12.47,25.54-8.1,8.26-18.13,12.91-29.34,15.24-3.46-.32-5.32,2-7.21,4.31-.48.59-.15.92.19,1.33,3.22,3.85,6.42,7.71,9.66,11.53.45.53,1.08.91,1.68,1.28,2.36,1.44,4.78,2.78,7.1,4.28,1.29.83,1.47,1.92.77,2.85-.72.96-1.85,1.02-3.09.18-.13-.09-.25-.21-.38-.29-2.81-1.52-5.59-3.13-8.47-4.52-1.48-.72-3.11-.99-4.79-.3-.9.37-1.94-.19-2.3-1.03-.36-.85-.04-1.93.87-2.36.89-.42,1.86-.65,2.88-.99-2.38-2.84-4.74-5.67-7.1-8.5-1.56-1.87-1.57-3.94-.01-5.78.22-.26.43-.54.72-.9-2.21-.12-4.27-.25-6.34-.34-.25-.01-.54.11-.75.26-1.57,1.18-3.12,2.39-4.69,3.57-1.17.89-2.36,1.75-3.57,2.65,2.85,3.46,5.63,6.79,8.36,10.15,1.34,1.66,2.66,3.3,4.82,3.97.49.15.93.47,1.36.76,1.51.98,3.05,1.93,4.51,2.99.95.69,1.1,1.83.5,2.65-.61.84-1.68,1-2.68.38-.2-.13-.39-.28-.59-.42-2.9-1.95-5.84-3.84-9.22-4.86-1.27-.38-2.53-.75-3.87-.16-1.11.49-2.23.06-2.63-.9-.44-1.06.04-2.12,1.26-2.59.77-.29,1.58-.46,2.48-.71-.45-.57-.86-1.1-1.29-1.62-1.94-2.35-3.9-4.69-5.83-7.05-1.72-2.1-1.5-4.04.66-5.7,1.02-.78,2.06-1.53,3.09-2.3.78-.59,1.55-1.19,2.48-1.92-5.27-1.05-10.09-2.64-14.67-4.92-13.32-6.62-22.88-16.97-29.72-30.01-.27-.51-.6-1.1-1.07-1.38-6.79-4.14-13.76-7.92-21.15-10.88-3.94-1.58-7.99-2.98-11.69-5.01C5.77,43.39,1.42,38.71.18,31.73c-.97-5.49,2.16-10.71,7.34-12.06,3.02-.79,5.97-.31,8.86.69,1.07.37,2.13.79,3.08,1.14.13-2.34.06-4.64.41-6.88.85-5.46,5.69-9.47,10.99-9.16,4.01.24,7.14,2.24,9.61,5.31,4.32,5.36,5.89,11.68,5.7,18.35-.27,9.67.48,19.23,2.12,28.75.22,1.25.85,1.53,1.85,1.74,9.1,1.9,17.95.95,26.61-2.28,7.75-2.9,14.21-7.53,19.05-14.31,2.94-4.11,5.09-8.63,6.92-13.31,2.29-5.87,4.59-11.73,7.93-17.11,3.78-6.08,8.84-10.45,16.04-11.89,5.93-1.19,11.73-1.11,17.12,2.15,4.85,2.93,8.36,7.05,10.92,12.05.24.47.63.91,1.06,1.22,2.7,1.99,4.69,4.54,6.3,7.58-.71.3-1.37.5-1.95.83ZM69.57,68.87c5.42,3.67,11.5,5.37,17.95,5.98,7.27.69,14.43.19,21.43-1.96,5.13-1.58,9.84-3.93,13.54-7.94,2.5-2.72,4.05-5.96,4.73-9.58.99-5.27-2.86-10.11-8.46-10.55-1.52-.12-3.15.03-4.6.47-1.07.33-2,1.25-2.86,2.06-.9.84-1.91,1.09-2.78.41-.87-.69-.97-1.74-.23-2.78,1.71-2.4,4.12-3.61,6.97-4.06,6.56-1.04,13.15,2.67,15.21,8.74,1.32,3.89.53,7.68-1.04,11.36-2.94,6.84-8.31,11.1-14.96,13.88-10,4.17-20.4,4.96-31.05,3.22-6.36-1.04-12.29-3.17-17.34-7.24-2.03-1.64-3.64-3.8-5.47-5.7-.31-.32-.69-.76-1.07-.8-3.22-.28-6.45-.48-9.82-.71.76,1.29,1.5,2.65,2.33,3.94,5.63,8.79,12.71,16.13,21.86,21.27,10.52,5.92,21.78,8.32,33.84,6.72,8.62-1.15,16.55-4.08,23.72-9.01,6.36-4.37,11.14-10.06,14.36-17.11,4.11-8.99,4.97-18.33,3.45-27.99-.39-2.46-.69-4.93-.97-7.4-.45-4,1.13-7.13,4.26-9.52,1.2-.92,2.5-1.72,4.05-2.78-1.44-1.07-2.79-2.03-4.1-3.04-.32-.24-.64-.57-.79-.93-3.1-7.07-7.82-12.53-15.79-13.7-8.49-1.25-15.68,1.5-20.8,8.71-3.75,5.28-6.14,11.24-8.47,17.23-2.73,7.03-6.01,13.75-11.21,19.35-6.07,6.54-13.58,10.67-22.12,12.96-2.82.76-5.7,1.28-8.69,1.93,1.32,1.81,3.04,3.28,4.93,4.56ZM43.14,48.71c-.65-5.74-1.06-11.49-.77-17.29.27-5.55-.39-10.98-3.23-15.94-1.19-2.09-2.72-3.88-4.84-5.07-4.77-2.69-9.79-.33-10.78,5.05-.52,2.85-.16,5.67.39,8.48.05.28.11.55.17.82.2.87-.02,1.6-.77,2.11-.75.51-1.49.39-2.25-.08-2.7-1.71-5.57-2.99-8.74-3.56-5.59-1.01-9.39,2.77-8.34,8.38.85,4.55,3.72,7.73,7.3,10.35,3.13,2.3,6.67,3.79,10.35,5.01,6.92,2.3,13.34,5.67,19.68,9.23.93.52,1.88,1.02,3.06,1.65-.45-3.28-.91-6.21-1.25-9.15Z"/>
    </g>
  </g>
</svg>