<svg width="76" height="68" viewBox="0 0 76 68" fill="none" xmlns="http://www.w3.org/2000/svg">
<path d="M73.7628 53.5114L45.544 4.634C41.978 -1.54467 33.0593 -1.54467 29.4934 4.634L1.27067 53.5114C-2.29528 59.6901 2.16216 67.4124 9.29405 67.4124H9.32107L30.6589 30.4562C32.4804 27.3032 36.5095 26.2226 39.6625 28.0442C42.8155 29.8658 43.8961 33.8948 42.0745 37.0478L24.542 67.4124H37.0729L47.9715 48.5368C49.793 45.3838 53.8221 44.3032 56.9751 46.1248C60.1281 47.9464 61.2087 51.9754 59.3871 55.1284L52.2938 67.4124H65.7356C72.8675 67.4124 77.3288 59.6901 73.759 53.5114H73.7628Z" fill="url(#paint0_linear_131_917)"/>
<defs>
<linearGradient id="paint0_linear_131_917" x1="0.0164119" y1="33.7057" x2="75.0171" y2="33.7057" gradientUnits="userSpaceOnUse">
<stop stop-color="#FDB738"/>
<stop offset="1" stop-color="#FD4238"/>
</linearGradient>
</defs>
</svg>
