<svg width="599" height="465" viewBox="0 0 599 465" fill="none" xmlns="http://www.w3.org/2000/svg">
<path d="M5.4482 288.6C5.4482 278.28 7.3682 269.22 11.2082 261.42C15.1682 253.62 20.5082 247.62 27.2282 243.42C33.9482 239.22 41.4482 237.12 49.7282 237.12C56.8082 237.12 62.9882 238.56 68.2682 241.44C73.6682 244.32 77.8082 248.1 80.6882 252.78V238.56H111.468V339H80.6882V324.78C77.6882 329.46 73.4882 333.24 68.0882 336.12C62.8082 339 56.6282 340.44 49.5482 340.44C41.3882 340.44 33.9482 338.34 27.2282 334.14C20.5082 329.82 15.1682 323.76 11.2082 315.96C7.3682 308.04 5.4482 298.92 5.4482 288.6ZM80.6882 288.78C80.6882 281.1 78.5282 275.04 74.2082 270.6C70.0082 266.16 64.8482 263.94 58.7282 263.94C52.6082 263.94 47.3882 266.16 43.0682 270.6C38.8682 274.92 36.7682 280.92 36.7682 288.6C36.7682 296.28 38.8682 302.4 43.0682 306.96C47.3882 311.4 52.6082 313.62 58.7282 313.62C64.8482 313.62 70.0082 311.4 74.2082 306.96C78.5282 302.52 80.6882 296.46 80.6882 288.78ZM164.516 252.78C167.516 248.1 171.656 244.32 176.936 241.44C182.216 238.56 188.396 237.12 195.476 237.12C203.756 237.12 211.256 239.22 217.976 243.42C224.696 247.62 229.976 253.62 233.816 261.42C237.776 269.22 239.756 278.28 239.756 288.6C239.756 298.92 237.776 308.04 233.816 315.96C229.976 323.76 224.696 329.82 217.976 334.14C211.256 338.34 203.756 340.44 195.476 340.44C188.516 340.44 182.336 339 176.936 336.12C171.656 333.24 167.516 329.52 164.516 324.96V386.88H133.736V238.56H164.516V252.78ZM208.436 288.6C208.436 280.92 206.276 274.92 201.956 270.6C197.756 266.16 192.536 263.94 186.296 263.94C180.176 263.94 174.956 266.16 170.636 270.6C166.436 275.04 164.336 281.1 164.336 288.78C164.336 296.46 166.436 302.52 170.636 306.96C174.956 311.4 180.176 313.62 186.296 313.62C192.416 313.62 197.636 311.4 201.956 306.96C206.276 302.4 208.436 296.28 208.436 288.6ZM286.684 252.78C289.684 248.1 293.824 244.32 299.104 241.44C304.384 238.56 310.564 237.12 317.644 237.12C325.924 237.12 333.424 239.22 340.144 243.42C346.864 247.62 352.144 253.62 355.984 261.42C359.944 269.22 361.924 278.28 361.924 288.6C361.924 298.92 359.944 308.04 355.984 315.96C352.144 323.76 346.864 329.82 340.144 334.14C333.424 338.34 325.924 340.44 317.644 340.44C310.684 340.44 304.504 339 299.104 336.12C293.824 333.24 289.684 329.52 286.684 324.96V386.88H255.904V238.56H286.684V252.78ZM330.604 288.6C330.604 280.92 328.444 274.92 324.124 270.6C319.924 266.16 314.704 263.94 308.464 263.94C302.344 263.94 297.124 266.16 292.804 270.6C288.604 275.04 286.504 281.1 286.504 288.78C286.504 296.46 288.604 302.52 292.804 306.96C297.124 311.4 302.344 313.62 308.464 313.62C314.584 313.62 319.804 311.4 324.124 306.96C328.444 302.4 330.604 296.28 330.604 288.6ZM393.552 228.12C388.152 228.12 383.712 226.56 380.232 223.44C376.872 220.2 375.192 216.24 375.192 211.56C375.192 206.76 376.872 202.8 380.232 199.68C383.712 196.44 388.152 194.82 393.552 194.82C398.832 194.82 403.152 196.44 406.512 199.68C409.992 202.8 411.732 206.76 411.732 211.56C411.732 216.24 409.992 220.2 406.512 223.44C403.152 226.56 398.832 228.12 393.552 228.12ZM408.852 238.56V339H378.072V238.56H408.852ZM481.558 264.12H464.998V339H434.218V264.12H423.058V238.56H434.218V235.68C434.218 223.32 437.758 213.96 444.838 207.6C451.918 201.12 462.298 197.88 475.978 197.88C478.258 197.88 479.938 197.94 481.018 198.06V224.16C475.138 223.8 470.998 224.64 468.598 226.68C466.198 228.72 464.998 232.38 464.998 237.66V238.56H481.558V264.12ZM598.621 238.56L535.621 386.7H502.501L525.541 335.58L484.681 238.56H519.061L542.281 301.38L565.321 238.56H598.621Z" fill="white"/>
<path d="M92.41 449V431.06H85.15V427.85H103.51V431.06H96.25V449H92.41ZM108.637 449.3C105.037 449.3 103.237 447.28 103.237 443.24V434.33H106.987V443.3C106.987 444.34 107.197 445.11 107.617 445.61C108.037 446.11 108.707 446.36 109.627 446.36C110.627 446.36 111.447 446.02 112.087 445.34C112.727 444.64 113.047 443.72 113.047 442.58V434.33H116.797V449H113.137V446.81C112.157 448.47 110.657 449.3 108.637 449.3ZM135.626 454.7C134.266 454.7 132.986 454.54 131.786 454.22C130.606 453.92 129.566 453.45 128.666 452.81L129.746 450.2C130.586 450.76 131.486 451.17 132.446 451.43C133.406 451.71 134.366 451.85 135.326 451.85C138.006 451.85 139.346 450.56 139.346 447.98V445.97C138.926 446.79 138.276 447.44 137.396 447.92C136.536 448.4 135.576 448.64 134.516 448.64C133.196 448.64 132.046 448.34 131.066 447.74C130.086 447.12 129.326 446.26 128.786 445.16C128.246 444.06 127.976 442.78 127.976 441.32C127.976 439.86 128.246 438.59 128.786 437.51C129.326 436.41 130.086 435.56 131.066 434.96C132.046 434.34 133.196 434.03 134.516 434.03C135.616 434.03 136.596 434.28 137.456 434.78C138.316 435.26 138.946 435.91 139.346 436.73V434.33H143.006V447.53C143.006 449.91 142.376 451.7 141.116 452.9C139.856 454.1 138.026 454.7 135.626 454.7ZM135.536 445.79C136.696 445.79 137.616 445.39 138.296 444.59C138.976 443.79 139.316 442.7 139.316 441.32C139.316 439.94 138.976 438.86 138.296 438.08C137.616 437.28 136.696 436.88 135.536 436.88C134.376 436.88 133.456 437.28 132.776 438.08C132.096 438.86 131.756 439.94 131.756 441.32C131.756 442.7 132.096 443.79 132.776 444.59C133.456 445.39 134.376 445.79 135.536 445.79ZM154.121 449.3C152.461 449.3 151.031 448.99 149.831 448.37C148.631 447.75 147.701 446.87 147.041 445.73C146.401 444.59 146.081 443.24 146.081 441.68C146.081 440.16 146.391 438.83 147.011 437.69C147.651 436.55 148.521 435.66 149.621 435.02C150.741 434.36 152.011 434.03 153.431 434.03C155.511 434.03 157.151 434.69 158.351 436.01C159.571 437.33 160.181 439.13 160.181 441.41V442.52H149.681C149.961 445.14 151.461 446.45 154.181 446.45C155.001 446.45 155.821 446.33 156.641 446.09C157.461 445.83 158.211 445.43 158.891 444.89L159.941 447.41C159.241 447.99 158.361 448.45 157.301 448.79C156.241 449.13 155.181 449.3 154.121 449.3ZM153.581 436.58C152.481 436.58 151.591 436.92 150.911 437.6C150.231 438.28 149.821 439.2 149.681 440.36H157.061C156.981 439.14 156.641 438.21 156.041 437.57C155.461 436.91 154.641 436.58 153.581 436.58ZM168.521 449.3C167.281 449.3 166.121 449.15 165.041 448.85C163.961 448.55 163.061 448.12 162.341 447.56L163.301 445.1C164.041 445.6 164.871 445.99 165.791 446.27C166.711 446.53 167.631 446.66 168.551 446.66C169.511 446.66 170.221 446.5 170.681 446.18C171.161 445.84 171.401 445.4 171.401 444.86C171.401 444.02 170.781 443.48 169.541 443.24L166.541 442.67C164.001 442.19 162.731 440.87 162.731 438.71C162.731 437.75 162.991 436.92 163.511 436.22C164.051 435.52 164.791 434.98 165.731 434.6C166.671 434.22 167.751 434.03 168.971 434.03C170.011 434.03 171.011 434.18 171.971 434.48C172.931 434.76 173.751 435.19 174.431 435.77L173.411 438.23C172.831 437.75 172.131 437.37 171.311 437.09C170.511 436.81 169.741 436.67 169.001 436.67C168.021 436.67 167.291 436.84 166.811 437.18C166.351 437.52 166.121 437.97 166.121 438.53C166.121 439.41 166.691 439.95 167.831 440.15L170.831 440.72C172.131 440.96 173.111 441.4 173.771 442.04C174.451 442.68 174.791 443.54 174.791 444.62C174.791 446.08 174.221 447.23 173.081 448.07C171.941 448.89 170.421 449.3 168.521 449.3ZM184.373 449.3C180.493 449.3 178.553 447.38 178.553 443.54V437.15H175.733V434.33H178.553V429.95H182.303V434.33H186.743V437.15H182.303V443.33C182.303 444.29 182.513 445.01 182.933 445.49C183.353 445.97 184.033 446.21 184.973 446.21C185.253 446.21 185.543 446.18 185.843 446.12C186.143 446.04 186.453 445.96 186.773 445.88L187.343 448.64C186.983 448.84 186.523 449 185.963 449.12C185.423 449.24 184.893 449.3 184.373 449.3ZM188.927 431.18V427.52H193.127V431.18H188.927ZM189.167 449V434.33H192.917V449H189.167ZM203.503 449.3C201.983 449.3 200.663 448.99 199.543 448.37C198.423 447.75 197.553 446.87 196.933 445.73C196.313 444.57 196.003 443.21 196.003 441.65C196.003 440.09 196.313 438.74 196.933 437.6C197.553 436.46 198.423 435.58 199.543 434.96C200.663 434.34 201.983 434.03 203.503 434.03C205.023 434.03 206.343 434.34 207.463 434.96C208.583 435.58 209.453 436.46 210.073 437.6C210.693 438.74 211.003 440.09 211.003 441.65C211.003 443.21 210.693 444.57 210.073 445.73C209.453 446.87 208.583 447.75 207.463 448.37C206.343 448.99 205.023 449.3 203.503 449.3ZM203.503 446.45C204.623 446.45 205.523 446.05 206.203 445.25C206.883 444.43 207.223 443.23 207.223 441.65C207.223 440.05 206.883 438.86 206.203 438.08C205.523 437.28 204.623 436.88 203.503 436.88C202.383 436.88 201.483 437.28 200.803 438.08C200.123 438.86 199.783 440.05 199.783 441.65C199.783 443.23 200.123 444.43 200.803 445.25C201.483 446.05 202.383 446.45 203.503 446.45ZM202.243 432.38L205.333 426.29H209.023L204.763 432.38H202.243ZM214.098 449V434.33H217.758V436.61C218.258 435.77 218.928 435.13 219.768 434.69C220.628 434.25 221.588 434.03 222.648 434.03C226.108 434.03 227.838 436.04 227.838 440.06V449H224.088V440.24C224.088 439.1 223.868 438.27 223.428 437.75C223.008 437.23 222.348 436.97 221.448 436.97C220.348 436.97 219.468 437.32 218.808 438.02C218.168 438.7 217.848 439.61 217.848 440.75V449H214.098ZM246.963 449.3C245.303 449.3 243.873 448.99 242.673 448.37C241.473 447.75 240.543 446.87 239.883 445.73C239.243 444.59 238.923 443.24 238.923 441.68C238.923 440.16 239.233 438.83 239.853 437.69C240.493 436.55 241.363 435.66 242.463 435.02C243.583 434.36 244.853 434.03 246.273 434.03C248.353 434.03 249.993 434.69 251.193 436.01C252.413 437.33 253.023 439.13 253.023 441.41V442.52H242.523C242.803 445.14 244.303 446.45 247.023 446.45C247.843 446.45 248.663 446.33 249.483 446.09C250.303 445.83 251.053 445.43 251.733 444.89L252.783 447.41C252.083 447.99 251.203 448.45 250.143 448.79C249.083 449.13 248.023 449.3 246.963 449.3ZM246.423 436.58C245.323 436.58 244.433 436.92 243.753 437.6C243.073 438.28 242.663 439.2 242.523 440.36H249.903C249.823 439.14 249.483 438.21 248.883 437.57C248.303 436.91 247.483 436.58 246.423 436.58ZM255.993 449V434.33H259.653V436.61C260.153 435.77 260.823 435.13 261.663 434.69C262.523 434.25 263.483 434.03 264.543 434.03C268.003 434.03 269.733 436.04 269.733 440.06V449H265.983V440.24C265.983 439.1 265.763 438.27 265.323 437.75C264.903 437.23 264.243 436.97 263.343 436.97C262.243 436.97 261.363 437.32 260.703 438.02C260.063 438.7 259.743 439.61 259.743 440.75V449H255.993ZM286.938 449.3C283.338 449.3 281.538 447.28 281.538 443.24V434.33H285.288V443.3C285.288 444.34 285.498 445.11 285.918 445.61C286.338 446.11 287.008 446.36 287.928 446.36C288.928 446.36 289.748 446.02 290.388 445.34C291.028 444.64 291.348 443.72 291.348 442.58V434.33H295.098V449H291.438V446.81C290.458 448.47 288.958 449.3 286.938 449.3ZM299.001 449V434.33H302.661V436.61C303.161 435.77 303.831 435.13 304.671 434.69C305.531 434.25 306.491 434.03 307.551 434.03C311.011 434.03 312.741 436.04 312.741 440.06V449H308.991V440.24C308.991 439.1 308.771 438.27 308.331 437.75C307.911 437.23 307.251 436.97 306.351 436.97C305.251 436.97 304.371 437.32 303.711 438.02C303.071 438.7 302.751 439.61 302.751 440.75V449H299.001ZM330.006 449.3C328.766 449.3 327.606 449.15 326.526 448.85C325.446 448.55 324.546 448.12 323.826 447.56L324.786 445.1C325.526 445.6 326.356 445.99 327.276 446.27C328.196 446.53 329.116 446.66 330.036 446.66C330.996 446.66 331.706 446.5 332.166 446.18C332.646 445.84 332.886 445.4 332.886 444.86C332.886 444.02 332.266 443.48 331.026 443.24L328.026 442.67C325.486 442.19 324.216 440.87 324.216 438.71C324.216 437.75 324.476 436.92 324.996 436.22C325.536 435.52 326.276 434.98 327.216 434.6C328.156 434.22 329.236 434.03 330.456 434.03C331.496 434.03 332.496 434.18 333.456 434.48C334.416 434.76 335.236 435.19 335.916 435.77L334.896 438.23C334.316 437.75 333.616 437.37 332.796 437.09C331.996 436.81 331.226 436.67 330.486 436.67C329.506 436.67 328.776 436.84 328.296 437.18C327.836 437.52 327.606 437.97 327.606 438.53C327.606 439.41 328.176 439.95 329.316 440.15L332.316 440.72C333.616 440.96 334.596 441.4 335.256 442.04C335.936 442.68 336.276 443.54 336.276 444.62C336.276 446.08 335.706 447.23 334.566 448.07C333.426 448.89 331.906 449.3 330.006 449.3ZM345.974 449.3C344.454 449.3 343.134 448.99 342.014 448.37C340.894 447.75 340.024 446.87 339.404 445.73C338.784 444.57 338.474 443.21 338.474 441.65C338.474 440.09 338.784 438.74 339.404 437.6C340.024 436.46 340.894 435.58 342.014 434.96C343.134 434.34 344.454 434.03 345.974 434.03C347.494 434.03 348.814 434.34 349.934 434.96C351.054 435.58 351.924 436.46 352.544 437.6C353.164 438.74 353.474 440.09 353.474 441.65C353.474 443.21 353.164 444.57 352.544 445.73C351.924 446.87 351.054 447.75 349.934 448.37C348.814 448.99 347.494 449.3 345.974 449.3ZM345.974 446.45C347.094 446.45 347.994 446.05 348.674 445.25C349.354 444.43 349.694 443.23 349.694 441.65C349.694 440.05 349.354 438.86 348.674 438.08C347.994 437.28 347.094 436.88 345.974 436.88C344.854 436.88 343.954 437.28 343.274 438.08C342.594 438.86 342.254 440.05 342.254 441.65C342.254 443.23 342.594 444.43 343.274 445.25C343.954 446.05 344.854 446.45 345.974 446.45ZM361.669 449.3C359.929 449.3 358.639 448.83 357.799 447.89C356.979 446.93 356.569 445.53 356.569 443.69V427.85H360.319V443.51C360.319 445.31 361.079 446.21 362.599 446.21C362.819 446.21 363.039 446.2 363.259 446.18C363.479 446.16 363.689 446.12 363.889 446.06L363.829 449.03C363.109 449.21 362.389 449.3 361.669 449.3ZM372.693 449.3C371.173 449.3 369.853 448.99 368.733 448.37C367.613 447.75 366.743 446.87 366.123 445.73C365.503 444.57 365.193 443.21 365.193 441.65C365.193 440.09 365.503 438.74 366.123 437.6C366.743 436.46 367.613 435.58 368.733 434.96C369.853 434.34 371.173 434.03 372.693 434.03C374.213 434.03 375.533 434.34 376.653 434.96C377.773 435.58 378.643 436.46 379.263 437.6C379.883 438.74 380.193 440.09 380.193 441.65C380.193 443.21 379.883 444.57 379.263 445.73C378.643 446.87 377.773 447.75 376.653 448.37C375.533 448.99 374.213 449.3 372.693 449.3ZM372.693 446.45C373.813 446.45 374.713 446.05 375.393 445.25C376.073 444.43 376.413 443.23 376.413 441.65C376.413 440.05 376.073 438.86 375.393 438.08C374.713 437.28 373.813 436.88 372.693 436.88C371.573 436.88 370.673 437.28 369.993 438.08C369.313 438.86 368.973 440.05 368.973 441.65C368.973 443.23 369.313 444.43 369.993 445.25C370.673 446.05 371.573 446.45 372.693 446.45ZM396.474 449.3C394.734 449.3 393.444 448.83 392.604 447.89C391.784 446.93 391.374 445.53 391.374 443.69V427.85H395.124V443.51C395.124 445.31 395.884 446.21 397.404 446.21C397.624 446.21 397.844 446.2 398.064 446.18C398.284 446.16 398.494 446.12 398.694 446.06L398.634 449.03C397.914 449.21 397.194 449.3 396.474 449.3ZM406.264 449.3C402.664 449.3 400.864 447.28 400.864 443.24V434.33H404.614V443.3C404.614 444.34 404.824 445.11 405.244 445.61C405.664 446.11 406.334 446.36 407.254 446.36C408.254 446.36 409.074 446.02 409.714 445.34C410.354 444.64 410.674 443.72 410.674 442.58V434.33H414.424V449H410.764V446.81C409.784 448.47 408.284 449.3 406.264 449.3ZM425.167 454.7C423.807 454.7 422.527 454.54 421.327 454.22C420.147 453.92 419.107 453.45 418.207 452.81L419.287 450.2C420.127 450.76 421.027 451.17 421.987 451.43C422.947 451.71 423.907 451.85 424.867 451.85C427.547 451.85 428.887 450.56 428.887 447.98V445.97C428.467 446.79 427.817 447.44 426.937 447.92C426.077 448.4 425.117 448.64 424.057 448.64C422.737 448.64 421.587 448.34 420.607 447.74C419.627 447.12 418.867 446.26 418.327 445.16C417.787 444.06 417.517 442.78 417.517 441.32C417.517 439.86 417.787 438.59 418.327 437.51C418.867 436.41 419.627 435.56 420.607 434.96C421.587 434.34 422.737 434.03 424.057 434.03C425.157 434.03 426.137 434.28 426.997 434.78C427.857 435.26 428.487 435.91 428.887 436.73V434.33H432.547V447.53C432.547 449.91 431.917 451.7 430.657 452.9C429.397 454.1 427.567 454.7 425.167 454.7ZM425.077 445.79C426.237 445.79 427.157 445.39 427.837 444.59C428.517 443.79 428.857 442.7 428.857 441.32C428.857 439.94 428.517 438.86 427.837 438.08C427.157 437.28 426.237 436.88 425.077 436.88C423.917 436.88 422.997 437.28 422.317 438.08C421.637 438.86 421.297 439.94 421.297 441.32C421.297 442.7 421.637 443.79 422.317 444.59C422.997 445.39 423.917 445.79 425.077 445.79ZM441.262 449.3C440.202 449.3 439.252 449.1 438.412 448.7C437.592 448.28 436.942 447.72 436.462 447.02C436.002 446.32 435.772 445.53 435.772 444.65C435.772 443.57 436.052 442.72 436.612 442.1C437.172 441.46 438.082 441 439.342 440.72C440.602 440.44 442.292 440.3 444.412 440.3H445.462V439.67C445.462 438.67 445.242 437.95 444.802 437.51C444.362 437.07 443.622 436.85 442.582 436.85C441.762 436.85 440.922 436.98 440.062 437.24C439.202 437.48 438.332 437.86 437.452 438.38L436.372 435.83C436.892 435.47 437.502 435.16 438.202 434.9C438.922 434.62 439.672 434.41 440.452 434.27C441.252 434.11 442.002 434.03 442.702 434.03C444.842 434.03 446.432 434.53 447.472 435.53C448.512 436.51 449.032 438.04 449.032 440.12V449H445.522V446.66C445.182 447.48 444.642 448.13 443.902 448.61C443.162 449.07 442.282 449.3 441.262 449.3ZM442.042 446.72C443.022 446.72 443.832 446.38 444.472 445.7C445.132 445.02 445.462 444.16 445.462 443.12V442.46H444.442C442.562 442.46 441.252 442.61 440.512 442.91C439.792 443.19 439.432 443.71 439.432 444.47C439.432 445.13 439.662 445.67 440.122 446.09C440.582 446.51 441.222 446.72 442.042 446.72ZM452.839 449V434.33H456.499V436.91C457.219 435.17 458.759 434.21 461.119 434.03L462.259 433.94L462.499 437.12L460.339 437.33C457.879 437.57 456.649 438.83 456.649 441.11V449H452.839Z" fill="white"/>
<path d="M371.659 142.697L296.409 12.3573C286.9 -4.11911 263.117 -4.11911 253.607 12.3573L178.347 142.697C168.838 159.174 180.724 179.766 199.742 179.766H199.815L256.715 81.2167C261.573 72.8086 272.317 69.9271 280.725 74.7846C289.133 79.6421 292.015 90.3862 287.157 98.7943L240.404 179.766H273.819L302.882 129.432C307.74 121.024 318.484 118.142 326.892 122.999C335.3 127.857 338.182 138.601 333.324 147.009L314.409 179.766H350.253C369.272 179.766 381.168 159.174 371.649 142.697H371.659Z" fill="url(#paint0_linear_174_4662)"/>
<defs>
<linearGradient id="paint0_linear_174_4662" x1="175.002" y1="89.882" x2="375.004" y2="89.882" gradientUnits="userSpaceOnUse">
<stop stop-color="#FDB738"/>
<stop offset="1" stop-color="#FD4238"/>
</linearGradient>
</defs>
</svg>
