<svg width="896" height="300" viewBox="0 0 896 300" fill="none" xmlns="http://www.w3.org/2000/svg">
<path d="M196.659 202.814L121.409 72.474C111.9 55.9976 88.1165 55.9976 78.6073 72.474L3.34678 202.814C-6.16241 219.29 5.72408 239.883 24.7425 239.883H24.8145L81.7153 141.333C86.5728 132.925 97.317 130.044 105.725 134.901C114.133 139.759 117.015 150.503 112.157 158.911L65.4035 239.883H98.8195L127.882 189.548C132.74 181.14 143.484 178.259 151.892 183.116C160.3 187.974 163.182 198.718 158.324 207.126L139.409 239.883H175.253C194.272 239.883 206.168 219.29 196.649 202.814H196.659Z" fill="url(#paint0_linear_1815_15235)"/>
<path d="M236.6 164C236.6 152.533 238.733 142.467 243 133.8C247.4 125.133 253.333 118.467 260.8 113.8C268.267 109.133 276.6 106.8 285.8 106.8C293.667 106.8 300.533 108.4 306.4 111.6C312.4 114.8 317 119 320.2 124.2V108.4H354.4V220H320.2V204.2C316.867 209.4 312.2 213.6 306.2 216.8C300.333 220 293.467 221.6 285.6 221.6C276.533 221.6 268.267 219.267 260.8 214.6C253.333 209.8 247.4 203.067 243 194.4C238.733 185.6 236.6 175.467 236.6 164ZM320.2 164.2C320.2 155.667 317.8 148.933 313 144C308.333 139.067 302.6 136.6 295.8 136.6C289 136.6 283.2 139.067 278.4 144C273.733 148.8 271.4 155.467 271.4 164C271.4 172.533 273.733 179.333 278.4 184.4C283.2 189.333 289 191.8 295.8 191.8C302.6 191.8 308.333 189.333 313 184.4C317.8 179.467 320.2 172.733 320.2 164.2ZM413.342 124.2C416.676 119 421.276 114.8 427.142 111.6C433.009 108.4 439.876 106.8 447.742 106.8C456.942 106.8 465.276 109.133 472.742 113.8C480.209 118.467 486.076 125.133 490.342 133.8C494.742 142.467 496.942 152.533 496.942 164C496.942 175.467 494.742 185.6 490.342 194.4C486.076 203.067 480.209 209.8 472.742 214.6C465.276 219.267 456.942 221.6 447.742 221.6C440.009 221.6 433.142 220 427.142 216.8C421.276 213.6 416.676 209.467 413.342 204.4V273.2H379.142V108.4H413.342V124.2ZM462.142 164C462.142 155.467 459.742 148.8 454.942 144C450.276 139.067 444.476 136.6 437.542 136.6C430.742 136.6 424.942 139.067 420.142 144C415.476 148.933 413.142 155.667 413.142 164.2C413.142 172.733 415.476 179.467 420.142 184.4C424.942 189.333 430.742 191.8 437.542 191.8C444.342 191.8 450.142 189.333 454.942 184.4C459.742 179.333 462.142 172.533 462.142 164ZM549.084 124.2C552.418 119 557.018 114.8 562.884 111.6C568.751 108.4 575.618 106.8 583.484 106.8C592.684 106.8 601.018 109.133 608.484 113.8C615.951 118.467 621.818 125.133 626.084 133.8C630.484 142.467 632.684 152.533 632.684 164C632.684 175.467 630.484 185.6 626.084 194.4C621.818 203.067 615.951 209.8 608.484 214.6C601.018 219.267 592.684 221.6 583.484 221.6C575.751 221.6 568.884 220 562.884 216.8C557.018 213.6 552.418 209.467 549.084 204.4V273.2H514.884V108.4H549.084V124.2ZM597.884 164C597.884 155.467 595.484 148.8 590.684 144C586.018 139.067 580.218 136.6 573.284 136.6C566.484 136.6 560.684 139.067 555.884 144C551.218 148.933 548.884 155.667 548.884 164.2C548.884 172.733 551.218 179.467 555.884 184.4C560.684 189.333 566.484 191.8 573.284 191.8C580.084 191.8 585.884 189.333 590.684 184.4C595.484 179.333 597.884 172.533 597.884 164ZM667.827 96.8C661.827 96.8 656.893 95.0667 653.027 91.6C649.293 88 647.427 83.6 647.427 78.4C647.427 73.0667 649.293 68.6667 653.027 65.2C656.893 61.6 661.827 59.8 667.827 59.8C673.693 59.8 678.493 61.6 682.227 65.2C686.093 68.6667 688.027 73.0667 688.027 78.4C688.027 83.6 686.093 88 682.227 91.6C678.493 95.0667 673.693 96.8 667.827 96.8ZM684.827 108.4V220H650.627V108.4H684.827ZM765.611 136.8H747.211V220H713.011V136.8H700.611V108.4H713.011V105.2C713.011 91.4667 716.944 81.0667 724.811 74C732.678 66.8 744.211 63.2 759.411 63.2C761.944 63.2 763.811 63.2667 765.011 63.4V92.4C758.478 92 753.878 92.9333 751.211 95.2C748.544 97.4667 747.211 101.533 747.211 107.4V108.4H765.611V136.8ZM895.681 108.4L825.681 273H788.881L814.481 216.2L769.081 108.4H807.281L833.081 178.2L858.681 108.4H895.681Z" fill="white"/>
<defs>
<linearGradient id="paint0_linear_1815_15235" x1="0.00209829" y1="149.999" x2="200.004" y2="149.999" gradientUnits="userSpaceOnUse">
<stop stop-color="#FDB738"/>
<stop offset="1" stop-color="#FD4238"/>
</linearGradient>
</defs>
</svg>
