<?xml version="1.0" standalone="no"?>
<!DOCTYPE svg PUBLIC "-//W3C//DTD SVG 20010904//EN"
 "http://www.w3.org/TR/2001/REC-SVG-20010904/DTD/svg10.dtd">
<svg version="1.0" xmlns="http://www.w3.org/2000/svg"
 width="256.000000pt" height="256.000000pt" viewBox="0 0 256.000000 256.000000"
 preserveAspectRatio="xMidYMid meet">
<metadata>
Created by potrace 1.14, written by Peter Selinger 2001-2017
</metadata>
<g transform="translate(0.000000,256.000000) scale(0.100000,-0.100000)"
fill="#000000" stroke="none">
<path d="M432 2545 c-158 -38 -300 -152 -376 -302 -56 -111 -56 -110 -55 -968
0 -721 2 -796 18 -855 53 -197 210 -352 411 -405 46 -12 181 -14 865 -12 446
2 817 5 825 8 8 3 29 9 45 14 66 17 170 81 231 143 79 78 138 193 154 297 7
47 10 329 7 860 -2 709 -4 795 -20 838 -62 179 -195 312 -374 374 -43 16 -129
17 -863 19 -640 2 -826 0 -868 -11z"/>
</g>
</svg>
