<svg width="70" height="63" viewBox="0 0 70 63" fill="none" xmlns="http://www.w3.org/2000/svg">
<path d="M68.8307 49.944L42.4931 4.32506C39.1649 -1.44169 30.8408 -1.44169 27.5126 4.32506L1.17137 49.944C-2.15684 55.7107 2.00343 62.9183 8.65986 62.9183H8.68508L28.6004 28.4258C30.3005 25.483 34.0609 24.4745 37.0037 26.1746C39.9466 27.8747 40.9551 31.6352 39.255 34.578L22.8912 62.9183H34.5868L44.7588 45.301C46.4589 42.3582 50.2194 41.3497 53.1622 43.0498C56.105 44.7499 57.1135 48.5104 55.4134 51.4532L48.793 62.9183H61.3386C67.9951 62.9183 72.159 55.7107 68.8271 49.944H68.8307Z" fill="url(#paint0_linear_309_9656)"/>
<defs>
<linearGradient id="paint0_linear_309_9656" x1="0.000734403" y1="31.4587" x2="70.0014" y2="31.4587" gradientUnits="userSpaceOnUse">
<stop stop-color="#FDB738"/>
<stop offset="1" stop-color="#FD4238"/>
</linearGradient>
</defs>
</svg>
